<?xml version="1.0" standalone="no"?>
<!DOCTYPE svg PUBLIC "-//W3C//DTD SVG 20010904//EN"
 "http://www.w3.org/TR/2001/REC-SVG-20010904/DTD/svg10.dtd">
<svg version="1.0" xmlns="http://www.w3.org/2000/svg"
 width="512.000000pt" height="512.000000pt" viewBox="0 0 512.000000 512.000000"
 preserveAspectRatio="xMidYMid meet">

<g transform="translate(0.000000,512.000000) scale(0.100000,-0.100000)"
fill="#000000" stroke="none">
<path d="M2893 4928 c-33 -16 -48 -61 -33 -97 6 -16 18 -32 26 -35 7 -3 20
-20 28 -38 30 -66 104 -173 127 -186 51 -26 109 10 109 67 0 27 -11 51 -44 95
-24 33 -47 71 -50 85 -3 14 -23 45 -43 68 -41 46 -82 60 -120 41z"/>
<path d="M2460 4709 c-41 -24 -80 -90 -80 -135 0 -33 26 -64 53 -64 20 0 56
-47 97 -128 17 -34 43 -70 56 -79 28 -18 78 -12 106 14 22 20 24 85 3 103 -8
7 -37 50 -66 97 -39 66 -49 91 -44 110 8 35 -11 78 -41 92 -34 15 -43 14 -84
-10z"/>
<path d="M2230 4326 c-26 -14 -105 -33 -250 -60 -185 -35 -264 -57 -475 -134
-360 -131 -398 -148 -675 -292 -146 -76 -275 -141 -287 -144 -31 -10 -63 -53
-63 -86 0 -45 29 -71 91 -81 67 -11 101 1 121 44 13 28 48 49 249 154 244 126
267 136 618 263 204 74 371 118 523 139 37 5 72 12 78 16 5 3 10 4 10 2 0 -15
-249 -514 -318 -639 -121 -218 -218 -416 -252 -513 -16 -48 -38 -101 -49 -118
-10 -18 -31 -60 -46 -94 -24 -55 -26 -66 -15 -92 17 -43 62 -59 105 -38 26 12
38 28 55 74 12 32 30 72 40 88 10 17 32 69 48 116 31 89 159 349 283 574 165
299 339 685 339 751 0 26 -23 62 -47 73 -31 14 -52 13 -83 -3z"/>
<path d="M3050 3109 c-144 -70 -465 -196 -610 -240 -83 -25 -110 -38 -157 -83
-18 -16 -33 -25 -33 -19 0 17 -54 35 -83 28 -14 -4 -33 -15 -42 -25 -15 -17
-16 -41 -6 -272 18 -410 29 -566 47 -683 21 -139 29 -160 66 -176 28 -11 39
-7 181 61 184 88 386 171 487 200 41 12 122 41 180 65 109 44 287 105 309 105
29 0 80 33 91 60 9 22 8 50 -5 131 -9 57 -20 185 -25 284 -8 156 -31 410 -46
512 -2 17 -22 50 -43 74 -36 41 -40 43 -102 46 -62 3 -69 1 -209 -68z m204
-116 c13 -65 26 -209 32 -368 3 -93 14 -223 24 -288 20 -137 32 -120 -110
-165 -52 -17 -131 -46 -175 -64 -44 -19 -120 -46 -170 -62 -132 -41 -253 -90
-397 -159 -70 -33 -130 -58 -134 -55 -15 16 -32 225 -38 453 -3 138 -8 270
-12 295 l-6 45 44 -3 c46 -4 60 5 83 51 7 14 37 30 95 50 199 67 493 184 600
238 133 67 156 71 164 32z"/>
<path d="M4723 2738 c-12 -6 -27 -23 -34 -39 -15 -37 2 -82 37 -98 13 -6 42
-39 64 -73 62 -99 68 -106 99 -113 39 -8 82 12 99 48 16 34 12 43 -87 172 -85
112 -119 132 -178 103z"/>
<path d="M4353 2478 c-33 -16 -48 -61 -33 -98 7 -16 17 -30 22 -30 5 0 42 -31
83 -70 77 -73 110 -89 144 -70 31 16 54 56 47 82 -3 13 -46 60 -95 106 -92 85
-127 101 -168 80z"/>
<path d="M4335 1829 c-33 -4 -96 -13 -140 -19 -44 -5 -105 -19 -135 -30 -45
-17 -57 -18 -65 -7 -18 25 -56 39 -89 33 -45 -9 -107 -64 -160 -145 -25 -38
-71 -90 -101 -115 -51 -44 -55 -51 -55 -91 0 -36 -11 -62 -56 -137 -31 -51
-72 -118 -93 -148 -49 -73 -127 -209 -136 -238 -10 -34 12 -78 46 -92 50 -21
80 0 123 88 21 42 56 103 77 134 21 31 84 133 140 225 56 92 109 176 117 186
21 23 235 141 293 161 45 15 73 19 206 31 l62 6 -19 -63 c-33 -115 -71 -232
-97 -298 -37 -95 -71 -229 -128 -495 -20 -93 -43 -194 -52 -223 -12 -43 -12
-59 -3 -82 16 -39 60 -56 100 -40 34 14 53 56 74 170 52 268 112 513 151 615
12 33 42 121 65 195 23 74 48 154 56 178 63 193 30 231 -181 201z"/>
</g>
</svg>
