<?xml version="1.0" encoding="UTF-8"?>
<!DOCTYPE svg PUBLIC "-//W3C//DTD SVG 1.1//EN" "http://www.w3.org/Graphics/SVG/1.1/DTD/svg11.dtd">
<svg xmlns="http://www.w3.org/2000/svg" version="1.1" width="512px" height="512px" style="shape-rendering:geometricPrecision; text-rendering:geometricPrecision; image-rendering:optimizeQuality; fill-rule:evenodd; clip-rule:evenodd" xmlns:xlink="http://www.w3.org/1999/xlink">
<g><path style="opacity:1" fill="#38a793" d="M 511.5,90.5 C 511.5,230.833 511.5,371.167 511.5,511.5C 371.167,511.5 230.833,511.5 90.5,511.5C 43.7123,502.549 14.5456,474.882 3,428.5C 1.51112,285.859 1.01112,143.192 1.5,0.5C 143.863,0.00954168 286.196,0.509542 428.5,2C 475.34,13.6692 503.007,43.1692 511.5,90.5 Z"/></g>
<g><path style="opacity:1" fill="#fdfefe" d="M 318.5,139.5 C 319.496,139.414 320.329,139.748 321,140.5C 321.724,146.313 321.058,151.98 319,157.5C 302.595,215.121 285.262,272.454 267,329.5C 259.264,349.901 245.431,364.401 225.5,373C 214.222,375.367 207.889,370.867 206.5,359.5C 208.408,347.266 214.408,337.599 224.5,330.5C 226.828,329.276 229.161,329.276 231.5,330.5C 232.318,333.107 232.818,335.774 233,338.5C 234.826,342.037 237.16,342.371 240,339.5C 250.97,315.926 259.97,291.593 267,266.5C 277.596,233.111 287.096,199.444 295.5,165.5C 289.205,165.979 283.539,168.146 278.5,172C 273.672,175.581 268.672,178.915 263.5,182C 254.026,191.357 252.859,201.857 260,213.5C 264.798,218.766 268.298,224.766 270.5,231.5C 268.624,237.197 264.624,240.697 258.5,242C 252.833,242.667 247.167,242.667 241.5,242C 233.416,236.904 227.916,229.737 225,220.5C 224.333,216.5 224.333,212.5 225,208.5C 230.657,196.372 238.824,186.205 249.5,178C 271.061,162.554 294.061,149.721 318.5,139.5 Z"/></g>
</svg>
